<?xml version="1.0" encoding="utf-8"?>
<!-- Generator: Adobe Illustrator 15.0.2, SVG Export Plug-In . SVG Version: 6.00 Build 0)  -->
<!DOCTYPE svg PUBLIC "-//W3C//DTD SVG 1.1//EN" "http://www.w3.org/Graphics/SVG/1.1/DTD/svg11.dtd">
<svg version="1.1"
	 id="svg6481" sodipodi:version="0.32" inkscape:version="0.46" sodipodi:docname="television.svg" inkscape:output_extension="org.inkscape.output.svg.inkscape" xmlns:dc="http://purl.org/dc/elements/1.1/" xmlns:cc="http://creativecommons.org/ns#" xmlns:rdf="http://www.w3.org/1999/02/22-rdf-syntax-ns#" xmlns:svg="http://www.w3.org/2000/svg" xmlns:sodipodi="http://sodipodi.sourceforge.net/DTD/sodipodi-0.dtd" xmlns:inkscape="http://www.inkscape.org/namespaces/inkscape"
	 xmlns="http://www.w3.org/2000/svg" xmlns:xlink="http://www.w3.org/1999/xlink" x="0px" y="0px" width="432px" height="466.001px"
	 viewBox="132.929 333.343 432 466.001" enable-background="new 132.929 333.343 432 466.001" xml:space="preserve">
<defs>
	
	
		<inkscape:perspective  id="perspective6489" inkscape:persp3d-origin="372.04724 : 350.78739 : 1" sodipodi:type="inkscape:persp3d" inkscape:vp_x="0 : 526.18109 : 1" inkscape:vp_y="0 : 1000 : 0" inkscape:vp_z="744.09448 : 526.18109 : 1">
		</inkscape:perspective>
	
		<inkscape:perspective  id="perspective6685" inkscape:persp3d-origin="372.04724 : 350.78739 : 1" sodipodi:type="inkscape:persp3d" inkscape:vp_x="0 : 526.18109 : 1" inkscape:vp_y="0 : 1000 : 0" inkscape:vp_z="744.09448 : 526.18109 : 1">
		</inkscape:perspective>
	
		<inkscape:perspective  id="perspective6766" inkscape:persp3d-origin="372.04724 : 350.78739 : 1" sodipodi:type="inkscape:persp3d" inkscape:vp_x="0 : 526.18109 : 1" inkscape:vp_y="0 : 1000 : 0" inkscape:vp_z="744.09448 : 526.18109 : 1">
		</inkscape:perspective>
	
		<inkscape:perspective  id="perspective7068" inkscape:persp3d-origin="372.04724 : 350.78739 : 1" sodipodi:type="inkscape:persp3d" inkscape:vp_x="0 : 526.18109 : 1" inkscape:vp_y="0 : 1000 : 0" inkscape:vp_z="744.09448 : 526.18109 : 1">
		</inkscape:perspective>
	
		<inkscape:perspective  id="perspective9795" inkscape:persp3d-origin="49.571419 : 30.574 : 1" sodipodi:type="inkscape:persp3d" inkscape:vp_x="0 : 45.861 : 1" inkscape:vp_y="0 : 1000 : 0" inkscape:vp_z="99.142838 : 45.861 : 1">
		</inkscape:perspective>
</defs>
<sodipodi:namedview  id="base" pagecolor="#ffffff" bordercolor="#666666" borderopacity="1.0" inkscape:zoom="0.5" inkscape:cx="492.68097" inkscape:cy="382.68848" showgrid="false" showguides="true" inkscape:window-y="0" inkscape:guide-bbox="true" inkscape:pageshadow="2" inkscape:pageopacity="0.0" inkscape:window-width="1272" inkscape:current-layer="layer1" inkscape:document-units="px" inkscape:window-height="944" inkscape:window-x="0">
	</sodipodi:namedview>
<g id="layer1" inkscape:label="Capa 1" inkscape:groupmode="layer">
	<g id="flowRoot9258">
	</g>
	<g id="g10751">
		<path d="M544.757,501.814H153.1c-11.14,0-20.171,9.033-20.171,20.18v243.263c0,11.146,9.031,20.18,20.171,20.18h391.657
			c11.142,0,20.172-9.033,20.172-20.18V521.994C564.929,510.848,555.896,501.814,544.757,501.814z M446.89,731.585
			c0,11.298-9.154,20.455-20.447,20.455h-242.97c-11.293,0-20.448-9.157-20.448-20.455V551.178c0-11.298,9.155-20.457,20.448-20.457
			h242.97c11.293,0,20.447,9.159,20.447,20.457V731.585z"/>
		<path id="rect7078" fill="#8D8D8D" d="M482.996,672.7h53.547c4.539,0,8.22,3.681,8.22,8.222v67.812
			c0,4.541-3.681,8.222-8.22,8.222h-53.547c-4.54,0-8.22-3.681-8.22-8.222v-67.812C474.776,676.38,478.456,672.7,482.996,672.7z"/>
		<path id="path7084" d="M480.425,333.343c-5.788,0-10.495,4.709-10.495,10.5c0,1.53,0.292,2.947,0.881,4.259L365.564,459.338
			c-2.222-0.106-4.484-0.221-6.752-0.221c-11.894,0-23.178,1.543-33.468,4.258L215.403,390.1c0.222-0.848,0.367-1.726,0.367-2.644
			c0-5.79-4.708-10.5-10.495-10.5s-10.496,4.709-10.496,10.5s4.708,10.5,10.496,10.5c2.304,0,4.434-0.794,6.165-2.056
			l105.172,70.119c-20.16,7.096-35.203,19.101-40.808,33.407H441.82c-7.851-20.039-34.201-35.542-67.229-39.354l101.137-106.905
			c1.409,0.707,3.013,1.102,4.695,1.102c5.787,0,10.422-4.636,10.422-10.426C490.846,338.055,486.212,333.343,480.425,333.343z"/>
		
			<linearGradient id="rect7624_1_" gradientUnits="userSpaceOnUse" x1="683.459" y1="758.8643" x2="705.1945" y2="759.3641" gradientTransform="matrix(2.2245 0 0 2.2245 -1383.1882 -1047.9364)">
			<stop  offset="0" style="stop-color:#2E3436"/>
			<stop  offset="1" style="stop-color:#2E3436;stop-opacity:0"/>
		</linearGradient>
		<path id="rect7624" sodipodi:nodetypes="ccccccccc" fill="url(#rect7624_1_)" d="M183.364,530.616h4.706
			c11.329,0,20.448,9.124,20.448,20.455v180.406c0,11.334-9.12,20.457-20.448,20.457h-4.706c-11.328,0-20.448-9.123-20.448-20.457
			V551.071C162.917,539.74,172.037,530.616,183.364,530.616z"/>
		
			<linearGradient id="path7637_1_" gradientUnits="userSpaceOnUse" x1="802.0176" y1="759.9063" x2="788.5334" y2="759.4064" gradientTransform="matrix(2.2245 0 0 2.2245 -1324.4929 -1047.9364)">
			<stop  offset="0" style="stop-color:#2E3436"/>
			<stop  offset="1" style="stop-color:#2E3436;stop-opacity:0"/>
		</linearGradient>
		<path id="path7637" sodipodi:nodetypes="ccccccccc" fill="url(#path7637_1_)" d="M426.493,530.502h-4.705
			c-11.329,0-20.448,9.124-20.448,20.457v180.407c0,11.333,9.119,20.455,20.448,20.455h4.705c11.328,0,20.449-9.122,20.449-20.455
			V550.959C446.942,539.626,437.821,530.502,426.493,530.502z"/>
		
			<linearGradient id="path7641_1_" gradientUnits="userSpaceOnUse" x1="733.0029" y1="701.9111" x2="733.5043" y2="720.4562" gradientTransform="matrix(2.2245 0 0 2.2245 -1326.7156 -1049.0477)">
			<stop  offset="0" style="stop-color:#2E3436"/>
			<stop  offset="1" style="stop-color:#2E3436;stop-opacity:0"/>
		</linearGradient>
		<path id="path7641" sodipodi:nodetypes="ccccccccc" fill="url(#path7641_1_)" d="M446.89,550.948v4.709
			c0,11.333-9.313,20.457-20.88,20.457H183.902c-11.567,0-20.879-9.124-20.879-20.457v-4.709c0-11.333,9.312-20.455,20.879-20.455
			H426.01C437.577,530.493,446.89,539.615,446.89,550.948z"/>
		
			<linearGradient id="path7645_1_" gradientUnits="userSpaceOnUse" x1="731.5146" y1="826.291" x2="732.5157" y2="798.7592" gradientTransform="matrix(2.2245 0 0 2.2245 -1324.4929 -1047.9364)">
			<stop  offset="0" style="stop-color:#2E3436"/>
			<stop  offset="1" style="stop-color:#2E3436;stop-opacity:0"/>
		</linearGradient>
		<path id="path7645" sodipodi:nodetypes="ccccccccc" fill="url(#path7645_1_)" d="M447.043,731.49v-4.709
			c0-11.333-9.196-20.455-20.618-20.455h-242.89c-11.422,0-20.618,9.122-20.618,20.455v4.709c0,11.333,9.196,20.455,20.618,20.455
			h242.89C437.847,751.945,447.043,742.823,447.043,731.49z"/>
		<path id="rect7683" d="M519.078,615.941L519.078,615.941c1.679,1.526,1.803,4.128,0.273,5.808l-16.59,18.253
			c-1.525,1.679-4.127,1.802-5.806,0.275l0,0c-1.68-1.527-1.803-4.13-0.276-5.81l16.592-18.252
			C514.799,614.537,517.396,614.412,519.078,615.941z"/>
		<path id="path9192" fill="none" stroke="#000000" stroke-width="2.3498" d="M474.896,677.328h69.334"/>
		<path id="path9194" fill="none" stroke="#000000" stroke-width="2.3498" d="M474.896,752.505h69.334"/>
		<path id="path9198" fill="none" stroke="#000000" stroke-width="2.3498" d="M474.896,683.591h69.334"/>
		<path id="path9200" fill="none" stroke="#000000" stroke-width="2.3498" d="M474.896,689.856h69.334"/>
		<path id="path9202" fill="none" stroke="#000000" stroke-width="2.3498" d="M474.896,696.122h69.334"/>
		<path id="path9204" fill="none" stroke="#000000" stroke-width="2.3498" d="M474.896,702.386h69.334"/>
		<path id="path9206" fill="none" stroke="#000000" stroke-width="2.3498" d="M474.896,721.182h69.334"/>
		<path id="path9208" fill="none" stroke="#000000" stroke-width="2.3498" d="M474.896,733.709h69.334"/>
		<path id="path9210" fill="none" stroke="#000000" stroke-width="2.3498" d="M474.896,739.975h69.334"/>
		<path id="path9212" fill="none" stroke="#000000" stroke-width="2.3498" d="M474.896,708.652h69.334"/>
		<path id="path9216" fill="none" stroke="#000000" stroke-width="2.3498" d="M474.896,746.24h69.334"/>
		<path id="path9218" fill="none" stroke="#000000" stroke-width="2.3498" d="M474.896,714.917h69.334"/>
		<path id="path9220" fill="none" stroke="#000000" stroke-width="2.3498" d="M474.896,727.445h69.334"/>
		<path id="flowRoot9266" fill="#EEEEEC" d="M509.1,769.757h-2.524v-1.764h-1.292v6.539c0,1.395,0.763,2.276,2.085,2.276h1.731
			v-1.233h-1.556c-0.661,0-0.97-0.221-0.97-0.883v-3.701h2.524L509.1,769.757 M509.745,773.283c0,2.174,1.705,3.674,3.658,3.674
			c1.952,0,3.655-1.5,3.655-3.674s-1.703-3.674-3.655-3.674C511.45,769.609,509.745,771.109,509.745,773.283 M511.097,773.283
			c0-1.439,0.97-2.439,2.308-2.439c1.336,0,2.305,1,2.305,2.439c0,1.438-0.969,2.438-2.305,2.438
			C512.065,775.722,511.097,774.722,511.097,773.283 M519.55,776.81v-3.202h1.47c0.676,0,1.146,0.396,1.146,1.276v1.926h1.292
			v-2.071c0-1.25-0.571-1.867-1.615-2.072v-0.029c0.397-0.104,0.823-0.809,1.104-1.293l0.925-1.586h-1.469l-1.22,2.086
			c-0.189,0.322-0.543,0.529-1.087,0.529h-0.544v-5.847h-1.292v10.283H519.55 M524.432,773.283c0,2.174,1.703,3.674,3.656,3.674
			s3.656-1.5,3.656-3.674s-1.703-3.674-3.656-3.674S524.432,771.109,524.432,773.283 M525.782,773.283
			c0-1.439,0.97-2.439,2.306-2.439s2.307,1,2.307,2.439c0,1.438-0.971,2.438-2.307,2.438S525.782,774.722,525.782,773.283
			 M534.134,776.81v-4.114c0-1.088,0.792-1.853,1.718-1.853s1.719,0.765,1.719,1.853v4.114h1.292v-4.114
			c0-1.853-1.292-3.086-3.011-3.086c-1.718,0-3.011,1.233-3.011,3.086v4.114H534.134"/>
		<path id="flowRoot9275" fill="#EEEEEC" d="M505.359,531.221v8.405h1.062v-3.374c0-0.887,0.639-1.5,1.405-1.5
			c0.756,0,1.406,0.324,1.406,1.5v3.374h1.062v-3.374c0-1.943-1.073-2.5-2.405-2.5c-0.61,0-1.144,0.266-1.468,0.625v-3.156H505.359z
			 M513.479,531.221c-1.187,0-2.028,0.787-2.028,2.095v6.312h1.062v-4.749h1.719v-1.031h-1.719v-0.563
			c0-0.732,0.43-1.063,1.124-1.063h0.75v-1H513.479z M499.362,533.846l1.999,5.313c0.191,0.516,0.438,0.594,0.812,0.594
			s0.62-0.078,0.813-0.594l2.029-5.313h-1.155l-1.688,4.469l-1.655-4.469H499.362z"/>
		<path id="path9449" fill="#EEEEEC" d="M505.796,594.248l-0.312,1.03h1.529v7.344h1.155v-8.374H505.796z"/>
		<path id="path9470" fill="#EEEEEC" d="M481.748,604.893l-2.063,2.905c-0.6,0.854-1.094,1.51-1.094,2.625c0,1.693,1.344,3,2.999,3
			c1.775,0,3.092-1.438,3.092-3c0-1.69-0.981-2.981-2.842-3.031l-0.656,0.97c1.344-0.023,2.344,0.678,2.344,2.094
			c0,1.057-0.874,1.906-1.905,1.906c-1.008,0-1.874-0.849-1.874-1.845c0-0.803,0.301-1.282,0.78-1.969l2.593-3.655H481.748z"/>
		<path id="path9468" fill="#EEEEEC" d="M480.011,640.599v4.28h2.093c1.331,0,1.844,0.566,1.844,1.563c0,0.864-0.52,1.5-1.563,1.5
			h-2.748v1.03h3.062c1.521,0,2.499-1.239,2.499-2.5c0-1.752-1.22-2.655-3.029-2.655h-1v-2.188h3.217v-1.03H480.011z"/>
		<path id="path9466" fill="#EEEEEC" d="M504.709,653.326v1.031h3.592l-2.624,2.438v0.844h1.313c1.26,0,1.968,0.609,1.968,1.438
			c0,0.877-0.583,1.594-1.687,1.594h-2.78v1.031h3.092c1.416,0,2.499-1.049,2.499-2.656c0-1.512-1.126-2.445-2.686-2.469
			l1.123-0.969c0.54-0.48,0.999-0.775,0.999-1.375c0-0.611-0.395-0.906-1.187-0.906L504.709,653.326L504.709,653.326z"/>
		<path id="path9464" fill="#EEEEEC" d="M534.533,641.15c-0.012,0-0.046,0.041-0.094,0.124l-1.063,1.78v3.625h-2.529l3.029-5.375
			h-1.249l-2.687,4.875c-0.204,0.373-0.375,0.601-0.375,0.875c0,0.435,0.309,0.688,0.813,0.688h2.998v1.938h1.156v-1.938h1.249
			v-1.063h-1.249v-5.375C534.533,641.175,534.546,641.15,534.533,641.15z"/>
		<path id="path9451" fill="#EEEEEC" d="M533.184,604.03c-1.559,0-2.967,1.031-2.967,2.687c0,1.213,0.61,2.08,1.749,2.5l0.968-0.78
			c-0.814-0.084-1.562-0.697-1.562-1.563c0-1.054,0.607-1.78,1.687-1.78c0.937,0,1.656,0.646,1.656,1.594
			c0,0.709-0.45,1.297-0.906,1.655l-2.967,2.313c-0.527,0.42-0.75,0.588-0.75,1.031c0,0.553,0.394,0.875,1.124,0.875h4.623v-1.031
			h-4.217v-0.031l2.343-1.844c1.14-0.84,1.905-1.588,1.905-2.969C535.87,605.2,534.672,604.03,533.184,604.03z"/>
		<path id="path9480" fill="#EEEEEC" d="M481.621,544.72v8.405h1.062v-8.405H481.621z M486.149,544.72
			c-1.188,0-2.029,0.787-2.029,2.094v6.313h1.062v-4.749h1.719v-1.031h-1.719v-0.563c0-0.732,0.43-1.063,1.124-1.063h0.75v-1
			H486.149z M472.75,547.345v3.938c0,1.08,0.887,1.969,2.063,1.969c0.647,0,1.304-0.26,1.687-0.813
			c0.384,0.553,1.008,0.813,1.656,0.813c1.175,0,2.062-0.889,2.062-1.969v-3.938h-1.031v3.688c0,0.731-0.406,1.188-1.029,1.188
			c-0.685,0-1.156-0.358-1.156-1.344v-3.53h-1.03v3.53c0,0.984-0.44,1.344-1.125,1.344c-0.623,0-1.029-0.455-1.029-1.188v-3.688
			H472.75z"/>
		<path id="path9484" fill="#EEEEEC" d="M533.501,543.72v8.405h1.063v-3.374c0-0.887,0.638-1.5,1.404-1.5
			c0.755,0,1.405,0.324,1.405,1.5v3.374h1.063v-3.374c0-1.943-1.074-2.5-2.405-2.5c-0.612,0-1.146,0.266-1.468,0.625v-3.156H533.501
			z M541.622,543.72c-1.188,0-2.03,0.787-2.03,2.094v6.313h1.063v-4.749h1.719v-1.031h-1.719v-0.563
			c0-0.732,0.429-1.063,1.125-1.063h0.75v-1H541.622z M527.504,546.345v3.374c0,1.513,1.064,2.531,2.468,2.531
			c1.404,0,2.469-1.021,2.469-2.531v-3.374h-1.063v3.374c0,0.89-0.648,1.5-1.405,1.5c-0.756,0-1.404-0.61-1.404-1.5v-3.374H527.504z
			"/>
		<path id="rect9823" sodipodi:nodetypes="ccccc" d="M167.091,780.661h20.592l-1.373,17.683h-17.846L167.091,780.661z"/>
		<path id="path9826" sodipodi:nodetypes="ccccc" d="M505.921,781.661h20.592l-1.373,17.683h-17.846L505.921,781.661z"/>
		
			<linearGradient id="rect10130_1_" gradientUnits="userSpaceOnUse" x1="1192.2363" y1="406.1348" x2="1202.2394" y2="548.1165" gradientTransform="matrix(0.9177 0 0 0.9177 -794.7938 176.5916)">
			<stop  offset="0" style="stop-color:#EEEEEC"/>
			<stop  offset="1" style="stop-color:#EEEEEC;stop-opacity:0"/>
		</linearGradient>
		<path id="rect10130" sodipodi:nodetypes="cccccssccc" opacity="0.5" fill="url(#rect10130_1_)" enable-background="new    " d="
			M191.784,538.72h222.979c10.396,0,18.768,8.375,18.768,18.774v95.821c0,10.401-8.37,18.773-18.768,18.773
			c0,0,5.082-66.104-114.24-32.118c-58.995,16.804-108.738,32.118-108.738,32.118c-9.971,2.945-18.766-8.372-18.766-18.773v-95.821
			C173.018,547.095,181.388,538.72,191.784,538.72z"/>
		
			<linearGradient id="path10659_1_" gradientUnits="userSpaceOnUse" x1="1059.9395" y1="446.3828" x2="1066.7502" y2="484.3731" gradientTransform="matrix(1 0 0 1 -710.3203 19.9697)">
			<stop  offset="0" style="stop-color:#EEEEEC"/>
			<stop  offset="1" style="stop-color:#EEEEEC;stop-opacity:0"/>
		</linearGradient>
		<path id="path10659" sodipodi:nodetypes="ccccc" opacity="0.7289" fill="url(#path10659_1_)" enable-background="new    " d="
			M354.188,462.844c-27.937,0-52.8,11.364-68.777,28.997c0,0,45.671-1.415,74.432-9.191c18.16-7.069,63.125,9.191,63.125,9.191
			C406.986,474.208,382.124,462.844,354.188,462.844z"/>
		
			<linearGradient id="path10669_1_" gradientUnits="userSpaceOnUse" x1="645.4951" y1="379.8828" x2="650.2962" y2="391.3791" gradientTransform="matrix(1 0 0 1 -443.3203 -0.0303)">
			<stop  offset="0" style="stop-color:#EEEEEC"/>
			<stop  offset="1" style="stop-color:#EEEEEC;stop-opacity:0"/>
		</linearGradient>
		<path id="path10669" sodipodi:nodetypes="ccssc" opacity="0.7289" fill="url(#path10669_1_)" enable-background="new    " d="
			M213.968,387.343c0,4.878-3.815-4.185-8.942-1.561c-5.001,0.75-8.727,6.438-8.727,1.561s3.958-8.838,8.834-8.838
			S213.968,382.465,213.968,387.343z"/>
		
			<linearGradient id="path10680_1_" gradientUnits="userSpaceOnUse" x1="645.3574" y1="379.8848" x2="650.1585" y2="391.381" gradientTransform="matrix(1 0 0 1 -167.9023 -43.5176)">
			<stop  offset="0" style="stop-color:#EEEEEC"/>
			<stop  offset="1" style="stop-color:#EEEEEC;stop-opacity:0"/>
		</linearGradient>
		<path id="path10680" sodipodi:nodetypes="ccssc" opacity="0.7289" fill="url(#path10680_1_)" enable-background="new    " d="
			M489.248,343.859c0,4.879-3.815-4.186-8.942-1.561c-5.001,0.75-8.727,6.439-8.727,1.561s3.957-8.838,8.834-8.838
			S489.248,338.98,489.248,343.859z"/>
		<g id="g10699" transform="translate(-99.702056,85.206367)">
			
				<path id="path10684" sodipodi:ry="9.5964489" sodipodi:rx="9.5964489" sodipodi:cy="833.15906" sodipodi:cx="420.72855" sodipodi:type="arc" fill="#8D8D8D" d="
				M629.17,542.329c0,12.452-10.091,22.547-22.537,22.547c-12.447,0-22.539-10.095-22.539-22.547l0,0
				c0-12.454,10.092-22.547,22.539-22.547C619.079,519.782,629.17,529.875,629.17,542.329z"/>
			
				<linearGradient id="path10686_1_" gradientUnits="userSpaceOnUse" x1="1244.0272" y1="522.9763" x2="1250.9408" y2="546.9866" gradientTransform="matrix(1 0 0 1 -642.7246 -0.0303)">
				<stop  offset="0" style="stop-color:#CDCDCC"/>
				<stop  offset="1" style="stop-color:#CDCDCC;stop-opacity:0"/>
			</linearGradient>
			<path id="path10686" sodipodi:nodetypes="csssc" fill="url(#path10686_1_)" d="M625.99,541.976
				c0,10.688-2.606-10.081-19.661-3.711c-10.232,3.819-19.054,14.398-19.054,3.711c0-10.69,8.672-19.366,19.356-19.366
				C617.317,522.61,625.99,531.285,625.99,541.976z"/>
			<path id="rect10697" d="M611.678,528.1L611.678,528.1c2.135,0.772,3.236,3.133,2.462,5.267l-8.407,23.191
				c-0.773,2.135-3.132,3.237-5.266,2.463l0,0c-2.135-0.773-3.235-3.132-2.463-5.268l8.408-23.19
				C607.186,528.428,609.543,527.324,611.678,528.1z"/>
		</g>
		
			<path id="path10706" sodipodi:ry="9.5964489" sodipodi:rx="9.5964489" sodipodi:cy="833.15906" sodipodi:cx="420.72855" sodipodi:type="arc" fill="#8D8D8D" d="
			M529.468,567.082c0,12.454-10.091,22.549-22.537,22.549c-12.447,0-22.539-10.095-22.539-22.549l0,0
			c0-12.452,10.092-22.547,22.539-22.547C519.377,544.535,529.468,554.629,529.468,567.082z"/>
		
			<linearGradient id="path10708_1_" gradientUnits="userSpaceOnUse" x1="1044.623" y1="522.9814" x2="1051.5366" y2="546.9918" gradientTransform="matrix(1 0 0 1 -543.0225 24.7188)">
			<stop  offset="0" style="stop-color:#CDCDCC"/>
			<stop  offset="1" style="stop-color:#CDCDCC;stop-opacity:0"/>
		</linearGradient>
		<path id="path10708" sodipodi:nodetypes="csssc" fill="url(#path10708_1_)" d="M526.288,566.728
			c0,10.69-2.606-10.078-19.661-3.711c-10.232,3.822-19.054,14.401-19.054,3.711c0-10.688,8.672-19.364,19.356-19.364
			C517.615,547.363,526.288,556.04,526.288,566.728z"/>
		<path id="rect10710" d="M506.37,551.868L506.37,551.868c2.27,0,4.108,1.84,4.108,4.111v24.67c0,2.271-1.84,4.111-4.108,4.111l0,0
			c-2.271,0-4.11-1.841-4.11-4.111v-24.67C502.26,553.708,504.1,551.868,506.37,551.868z"/>
		
			<linearGradient id="rect10719_1_" gradientUnits="userSpaceOnUse" x1="1050.5313" y1="770.4131" x2="1077.547" y2="819.4029" gradientTransform="matrix(1 0 0 1 -558.3203 -87.0303)">
			<stop  offset="0" style="stop-color:#CECECC"/>
			<stop  offset="1" style="stop-color:#CECECC;stop-opacity:0"/>
		</linearGradient>
		<path id="rect10719" opacity="0.729" fill="url(#rect10719_1_)" enable-background="new    " d="M485.552,674.624h50.437
			c4.57,0,8.275,3.706,8.275,8.278v68.272c0,4.572-3.705,8.278-8.275,8.278h-50.437c-4.571,0-8.275-3.706-8.275-8.278v-68.272
			C477.275,678.33,480.98,674.624,485.552,674.624z"/>
		
			<linearGradient id="rect10739_1_" gradientUnits="userSpaceOnUse" x1="-391.8027" y1="-1252.1548" x2="-367.787" y2="-1222.1619" gradientTransform="matrix(-1 0 0 -1 155.9551 -492.9199)">
			<stop  offset="0" style="stop-color:#2E2E2C"/>
			<stop  offset="1" style="stop-color:#888A85;stop-opacity:0"/>
		</linearGradient>
		<path id="rect10739" opacity="0.8099" fill="url(#rect10739_1_)" enable-background="new    " d="M535.987,755.455h-50.437
			c-4.57,0-8.275-3.707-8.275-8.279v-68.272c0-4.571,3.705-8.278,8.275-8.278h50.437c4.57,0,8.275,3.707,8.275,8.278v68.272
			C544.264,751.748,540.559,755.455,535.987,755.455z"/>
	</g>
</g>
</svg>
